<svg xmlns="http://www.w3.org/2000/svg" version="1.1" xmlns:xlink="http://www.w3.org/1999/xlink" xmlns:svgjs="http://svgjs.dev/svgjs" width="128" height="128" viewBox="0 0 128 128"><g transform="matrix(0.8046875,0,0,0.8046875,12.724711592859286,6.9710656126564885)"><svg viewBox="0 0 86 96" data-background-color="#ffffff" preserveAspectRatio="xMidYMid meet" height="142" width="128" xmlns="http://www.w3.org/2000/svg" xmlns:xlink="http://www.w3.org/1999/xlink"><g id="tight-bounds" transform="matrix(1,0,0,1,-0.18762327170774995,-0.08727295558067283)"><svg viewBox="0 0 85.93127789074774 95.481" height="95.481" width="85.93127789074774"><g><svg viewBox="0 0 85.93127789074774 95.481" height="95.481" width="85.93127789074774"><g><svg viewBox="0 0 85.93127789074774 95.481" height="95.481" width="85.93127789074774"><g id="textblocktransform"><svg viewBox="0 0 85.93127789074774 95.481" height="95.481" width="85.93127789074774" id="textblock"><g><svg viewBox="0 0 85.93127789074774 95.481" height="95.481" width="85.93127789074774"><g><svg viewBox="0 0 85.93127789074774 95.481" height="95.481" width="85.93127789074774"><g><svg xmlns="http://www.w3.org/2000/svg" data-name="Layer 1" viewBox="5 2 54 60.001132609191025" x="0" y="0" height="95.481" width="85.93127789074774" class="icon-icon-0" data-fill-palette-color="accent" id="icon-0"><polygon points="13 31.688 15.325 40 48.675 40 51 31.688 57 10.146 40.325 26.439 32 2 23.675 26.439 7 10.146 13 31.688" fill="#31c48d" data-fill-palette-color="accent"></polygon><path d="M5 59h6v-0.021L28.828 61.8a16.038 16.038 0 0 0 9.752-1.516l19.048-9.708A2.416 2.416 0 0 0 59 48.446a2.686 2.686 0 0 0-3.925-2.166L38.1 54.342a10.442 10.442 0 0 1-4.467 1H33a10.162 10.162 0 0 1-6.828-2.574L25 51.7h7.847A2.064 2.064 0 0 0 35 49.738 2.026 2.026 0 0 0 33.174 47.8l-8.641-1.211a14.956 14.956 0 0 0-5.034 0.152L13 48.057H11V47H5Z" fill="#31c48d" data-fill-palette-color="accent"></path></svg></g></svg></g></svg></g></svg></g></svg></g><g></g></svg></g><defs></defs></svg><rect width="85.93127789074774" height="95.481" fill="none" stroke="none" visibility="hidden"></rect></g></svg></g></svg>